<svg width="406" height="306" viewBox="0 0 406 306" fill="none" xmlns="http://www.w3.org/2000/svg">
<path d="M353.799 235.388H49.329C49.1944 235.388 49.0654 235.334 48.9702 235.239C48.875 235.144 48.8215 235.015 48.8215 234.88C48.8215 234.745 48.875 234.616 48.9702 234.521C49.0654 234.426 49.1944 234.373 49.329 234.373H353.829C353.963 234.375 354.09 234.429 354.185 234.524C354.28 234.619 354.334 234.746 354.337 234.88C354.337 234.949 354.323 235.018 354.295 235.082C354.268 235.145 354.228 235.203 354.177 235.25C354.127 235.298 354.067 235.334 354.002 235.358C353.937 235.382 353.868 235.392 353.799 235.388Z" fill="#D1D3D4"/>
<path d="M329.063 254.957H144.455L172.053 39.6245H356.671L329.063 254.957Z" fill="white"/>
<path d="M329.073 255.515H144.455C144.382 255.516 144.31 255.501 144.243 255.471C144.177 255.441 144.117 255.397 144.069 255.342C144.023 255.288 143.988 255.225 143.967 255.157C143.946 255.089 143.939 255.017 143.947 254.947L171.535 39.5636C171.55 39.4415 171.608 39.329 171.7 39.2469C171.791 39.1647 171.909 39.1186 172.032 39.117H356.671C356.744 39.1163 356.816 39.1313 356.883 39.1612C356.95 39.191 357.009 39.2349 357.057 39.2898C357.106 39.3447 357.141 39.4094 357.162 39.4795C357.183 39.5495 357.189 39.6232 357.178 39.6955L329.57 255.018C329.568 255.149 329.515 255.274 329.422 255.366C329.329 255.459 329.204 255.512 329.073 255.515ZM145.033 254.5H328.616L356.092 40.132H172.55L145.033 254.5Z" fill="#231F20"/>
<path d="M329.875 65.8521H212.846C212.264 65.8673 211.687 65.7539 211.155 65.5201C210.622 65.2863 210.148 64.9378 209.766 64.4995C209.384 64.0612 209.104 63.544 208.945 62.9847C208.786 62.4255 208.752 61.838 208.846 61.2643L209.151 58.8791C209.337 57.6288 209.958 56.4842 210.905 55.6468C211.852 54.8095 213.064 54.333 214.327 54.3014H331.347C331.927 54.2865 332.503 54.3997 333.035 54.6329C333.566 54.8661 334.04 55.2137 334.422 55.6508C334.804 56.0879 335.084 56.6038 335.244 57.1618C335.404 57.7198 335.439 58.3061 335.346 58.8791L335.031 61.2643C334.848 62.5131 334.231 63.6574 333.288 64.4964C332.345 65.3354 331.137 65.8154 329.875 65.8521Z" fill="#E6E7E8"/>
<path d="M196.433 56.1893H185.999C185.864 56.1893 185.735 56.1358 185.64 56.0407C185.545 55.9455 185.491 55.8164 185.491 55.6818C185.494 55.548 185.548 55.4204 185.643 55.3258C185.737 55.2312 185.865 55.1769 185.999 55.1743H196.433C196.567 55.1769 196.694 55.2312 196.789 55.3258C196.884 55.4204 196.938 55.548 196.94 55.6818C196.94 55.8164 196.887 55.9455 196.792 56.0407C196.697 56.1358 196.568 56.1893 196.433 56.1893Z" fill="#D1D3D4"/>
<path d="M195.895 60.767H185.41C185.275 60.767 185.146 60.7135 185.051 60.6183C184.956 60.5231 184.903 60.3941 184.903 60.2595C184.903 60.1249 184.956 59.9958 185.051 59.9006C185.146 59.8054 185.275 59.752 185.41 59.752H195.895C196.03 59.752 196.159 59.8054 196.254 59.9006C196.349 59.9958 196.403 60.1249 196.403 60.2595C196.403 60.3941 196.349 60.5231 196.254 60.6183C196.159 60.7135 196.03 60.767 195.895 60.767Z" fill="#D1D3D4"/>
<path d="M195.256 65.3345H184.831C184.697 65.3345 184.568 65.281 184.473 65.1858C184.377 65.0906 184.324 64.9616 184.324 64.827C184.324 64.6924 184.377 64.5633 184.473 64.4681C184.568 64.3729 184.697 64.3195 184.831 64.3195H195.256C195.39 64.3195 195.519 64.3729 195.614 64.4681C195.71 64.5633 195.763 64.6924 195.763 64.827C195.763 64.9616 195.71 65.0906 195.614 65.1858C195.519 65.281 195.39 65.3345 195.256 65.3345Z" fill="#D1D3D4"/>
<path d="M196.433 56.1893H185.999C185.864 56.1893 185.735 56.1358 185.64 56.0407C185.545 55.9455 185.491 55.8164 185.491 55.6818C185.494 55.548 185.548 55.4204 185.643 55.3258C185.737 55.2312 185.865 55.1769 185.999 55.1743H196.433C196.567 55.1769 196.694 55.2312 196.789 55.3258C196.884 55.4204 196.938 55.548 196.94 55.6818C196.94 55.8164 196.887 55.9455 196.792 56.0407C196.697 56.1358 196.568 56.1893 196.433 56.1893Z" stroke="#231F20" stroke-width="1.015" stroke-linecap="round" stroke-linejoin="round"/>
<path d="M195.895 60.767H185.41C185.275 60.767 185.146 60.7135 185.051 60.6183C184.956 60.5231 184.903 60.3941 184.903 60.2595C184.903 60.1249 184.956 59.9958 185.051 59.9006C185.146 59.8054 185.275 59.752 185.41 59.752H195.895C196.03 59.752 196.159 59.8054 196.254 59.9006C196.349 59.9958 196.403 60.1249 196.403 60.2595C196.403 60.3941 196.349 60.5231 196.254 60.6183C196.159 60.7135 196.03 60.767 195.895 60.767Z" stroke="#231F20" stroke-width="1.015" stroke-linecap="round" stroke-linejoin="round"/>
<path d="M195.256 65.3345H184.831C184.697 65.3345 184.568 65.281 184.473 65.1858C184.377 65.0906 184.324 64.9616 184.324 64.827C184.324 64.6924 184.377 64.5633 184.473 64.4681C184.568 64.3729 184.697 64.3195 184.831 64.3195H195.256C195.39 64.3195 195.519 64.3729 195.614 64.4681C195.71 64.5633 195.763 64.6924 195.763 64.827C195.763 64.9616 195.71 65.0906 195.614 65.1858C195.519 65.281 195.39 65.3345 195.256 65.3345Z" stroke="#231F20" stroke-width="1.015" stroke-linecap="round" stroke-linejoin="round"/>
<path d="M322.395 122.215H187.278C185.775 122.255 184.282 121.963 182.905 121.36C181.528 120.758 180.3 119.859 179.31 118.728C178.32 117.597 177.591 116.262 177.175 114.817C176.759 113.373 176.667 111.854 176.904 110.37L179.127 93.0034C179.595 89.7492 181.199 86.7654 183.654 84.5792C186.11 82.3931 189.259 81.1454 192.546 81.0568H327.673C329.175 81.0251 330.667 81.3246 332.041 81.9342C333.415 82.5437 334.638 83.4483 335.624 84.5837C336.609 85.7192 337.332 87.0576 337.742 88.5039C338.152 89.9503 338.238 91.4691 337.995 92.9526L335.813 110.37C335.325 113.606 333.712 116.568 331.259 118.734C328.805 120.9 325.667 122.132 322.395 122.215Z" fill="white"/>
<path d="M322.394 122.723H187.278C185.711 122.754 184.156 122.447 182.72 121.821C181.283 121.196 179.999 120.267 178.955 119.099C177.916 117.897 177.15 116.484 176.709 114.958C176.267 113.433 176.161 111.829 176.397 110.258L178.64 92.8917C179.137 89.5281 180.804 86.4472 183.347 84.1901C185.89 81.933 189.147 80.644 192.545 80.5493H327.672C329.234 80.5235 330.782 80.8338 332.213 81.459C333.644 82.0842 334.923 83.0097 335.965 84.1729C337.003 85.3774 337.769 86.7916 338.21 88.3191C338.651 89.8465 338.758 91.4512 338.523 93.0237L336.32 110.37C335.822 113.738 334.153 116.823 331.606 119.082C329.06 121.341 325.798 122.63 322.394 122.723ZM192.545 81.5643C189.393 81.6567 186.374 82.8556 184.017 84.9509C181.66 87.0461 180.116 89.904 179.655 93.0237L177.402 110.37C177.189 111.798 177.285 113.254 177.684 114.641C178.084 116.028 178.777 117.313 179.716 118.409C180.666 119.468 181.833 120.309 183.138 120.875C184.444 121.44 185.855 121.718 187.278 121.687H322.394C325.549 121.602 328.573 120.407 330.934 118.313C333.296 116.219 334.843 113.36 335.305 110.238L337.538 92.8714C337.751 91.4423 337.655 89.9841 337.256 88.5955C336.856 87.2068 336.164 85.9201 335.224 84.8225C334.275 83.7655 333.109 82.9255 331.806 82.3598C330.503 81.794 329.093 81.5158 327.672 81.544L192.545 81.5643Z" fill="#231F20"/>
<path d="M213.988 111.403C220.124 105.646 220.995 96.6047 215.933 91.208C210.87 85.8114 201.791 86.1032 195.655 91.8599C189.518 97.6165 188.647 106.658 193.71 112.055C198.772 117.451 207.851 117.16 213.988 111.403Z" fill="#505ABB"/>
<path d="M214.591 97.0938C214.481 97.2392 214.362 97.3781 214.236 97.51L202.107 108.249C201.691 108.614 201.406 108.624 201.092 108.249L195.895 101.996C195.611 101.658 195.662 101.32 196.047 100.981L197.742 99.6212C198.098 99.337 198.392 99.337 198.656 99.6212L201.762 103.265C202.086 103.641 202.361 103.651 202.777 103.265L212.135 95.0232C212.541 94.6679 212.825 94.6679 213.15 95.0232C213.475 95.3784 213.982 95.9671 214.388 96.4442C214.48 96.566 214.541 96.7183 214.622 96.8502L214.591 97.0938Z" fill="white"/>
<path d="M319.421 95.3988H232.547C232.143 95.3988 231.756 95.2384 231.47 94.9528C231.185 94.6673 231.024 94.2801 231.024 93.8763C231.024 93.4725 231.185 93.0852 231.47 92.7997C231.756 92.5142 232.143 92.3538 232.547 92.3538H319.421C319.824 92.3538 320.212 92.5142 320.497 92.7997C320.783 93.0852 320.943 93.4725 320.943 93.8763C320.943 94.2801 320.783 94.6673 320.497 94.9528C320.212 95.2384 319.824 95.3988 319.421 95.3988Z" fill="#E6E7E8"/>
<path d="M299.831 110.045H230.669C230.265 110.045 229.878 109.885 229.592 109.599C229.307 109.314 229.146 108.926 229.146 108.523C229.146 108.119 229.307 107.732 229.592 107.446C229.878 107.161 230.265 107 230.669 107H299.831C300.235 107 300.622 107.161 300.908 107.446C301.193 107.732 301.354 108.119 301.354 108.523C301.354 108.926 301.193 109.314 300.908 109.599C300.622 109.885 300.235 110.045 299.831 110.045Z" fill="#E6E7E8"/>
<path d="M316.284 169.829H181.167C179.66 169.868 178.163 169.574 176.782 168.968C175.402 168.362 174.172 167.458 173.181 166.322C172.191 165.185 171.463 163.844 171.05 162.394C170.637 160.944 170.55 159.421 170.794 157.933L173.027 140.566C173.5 137.316 175.105 134.337 177.56 132.155C180.015 129.973 183.162 128.728 186.445 128.64H321.562C323.07 128.604 324.567 128.902 325.946 129.512C327.325 130.122 328.553 131.029 329.541 132.169C330.529 133.308 331.253 134.651 331.662 136.103C332.07 137.555 332.153 139.079 331.905 140.566L329.682 157.933C329.206 161.175 327.601 164.146 325.15 166.322C322.7 168.497 319.56 169.739 316.284 169.829Z" fill="white"/>
<path d="M316.294 170.336H181.167C179.603 170.367 178.051 170.061 176.616 169.437C175.182 168.814 173.899 167.888 172.854 166.723C171.817 165.518 171.052 164.104 170.61 162.576C170.169 161.049 170.062 159.444 170.297 157.872L172.55 140.505C173.052 137.141 174.723 134.061 177.27 131.806C179.816 129.551 183.075 128.265 186.476 128.173H321.562C323.128 128.142 324.682 128.448 326.118 129.072C327.554 129.695 328.839 130.621 329.885 131.786C330.921 132.992 331.685 134.407 332.126 135.934C332.568 137.461 332.676 139.065 332.443 140.637L330.21 158.004C329.71 161.367 328.041 164.447 325.496 166.702C322.951 168.958 319.693 170.244 316.294 170.336ZM186.445 129.188C183.297 129.284 180.283 130.484 177.928 132.576C175.574 134.669 174.03 137.522 173.565 140.637L171.342 158.004C171.129 159.433 171.225 160.891 171.625 162.28C172.024 163.669 172.717 164.955 173.656 166.053C174.606 167.109 175.772 167.947 177.076 168.511C178.379 169.075 179.788 169.351 181.208 169.321H316.294C319.449 169.234 322.471 168.038 324.832 165.945C327.193 163.851 328.741 160.993 329.205 157.872L331.428 140.505C331.646 139.076 331.552 137.617 331.152 136.227C330.753 134.838 330.057 133.552 329.114 132.456C328.164 131.4 326.998 130.561 325.695 129.997C324.392 129.433 322.982 129.157 321.562 129.188H186.445Z" fill="#231F20"/>
<path d="M196.91 164.053C195.045 164.09 193.193 163.722 191.483 162.976C189.773 162.23 188.245 161.122 187.004 159.729C185.77 158.294 184.86 156.611 184.335 154.793C183.809 152.975 183.681 151.066 183.959 149.194C184.55 145.172 186.542 141.489 189.584 138.793C192.625 136.097 196.521 134.561 200.584 134.456C202.45 134.419 204.302 134.785 206.014 135.529C207.725 136.274 209.256 137.379 210.501 138.77C211.736 140.206 212.647 141.891 213.172 143.711C213.697 145.531 213.825 147.442 213.546 149.316C212.954 153.338 210.96 157.023 207.917 159.719C204.873 162.416 200.975 163.951 196.91 164.053ZM200.574 135.471C196.76 135.577 193.106 137.023 190.251 139.555C187.397 142.086 185.525 145.542 184.963 149.316C184.7 151.051 184.815 152.823 185.3 154.51C185.785 156.197 186.63 157.76 187.775 159.09C188.921 160.372 190.331 161.391 191.908 162.078C193.484 162.765 195.191 163.103 196.91 163.069C200.726 162.965 204.383 161.52 207.239 158.988C210.096 156.457 211.969 153 212.531 149.224C212.793 147.493 212.678 145.725 212.194 144.041C211.711 142.358 210.87 140.799 209.73 139.47C208.579 138.181 207.164 137.155 205.58 136.465C203.996 135.775 202.281 135.436 200.554 135.471H200.574Z" fill="#D1D3D4"/>
<path d="M208.491 144.707C208.381 144.853 208.262 144.992 208.136 145.124L196.007 155.862C195.58 156.228 195.296 156.238 194.992 155.862L189.744 149.62C189.46 149.285 189.521 148.96 189.907 148.605L191.602 147.245C191.957 146.961 192.251 146.961 192.505 147.245L195.621 150.889C195.946 151.274 196.22 151.274 196.636 150.889L206.065 142.576C206.471 142.221 206.745 142.221 207.08 142.576C207.415 142.931 207.902 143.52 208.308 144.007C208.401 144.131 208.483 144.264 208.552 144.403L208.491 144.707Z" fill="white"/>
<path d="M313.32 143.012H226.447C226.043 143.012 225.656 142.852 225.37 142.566C225.084 142.281 224.924 141.894 224.924 141.49C224.924 141.086 225.084 140.699 225.37 140.413C225.656 140.128 226.043 139.967 226.447 139.967H313.32C313.724 139.967 314.111 140.128 314.397 140.413C314.683 140.699 314.843 141.086 314.843 141.49C314.843 141.894 314.683 142.281 314.397 142.566C314.111 142.852 313.724 143.012 313.32 143.012Z" fill="#E6E7E8"/>
<path d="M293.721 157.659H224.569C224.165 157.659 223.778 157.498 223.492 157.213C223.207 156.927 223.046 156.54 223.046 156.136C223.046 155.733 223.207 155.345 223.492 155.06C223.778 154.774 224.165 154.614 224.569 154.614H293.721C294.125 154.614 294.512 154.774 294.797 155.06C295.083 155.345 295.243 155.733 295.243 156.136C295.243 156.54 295.083 156.927 294.797 157.213C294.512 157.498 294.125 157.659 293.721 157.659Z" fill="#E6E7E8"/>
<path d="M310.184 217.442H175.067C173.56 217.482 172.063 217.188 170.682 216.581C169.302 215.975 168.072 215.072 167.081 213.935C166.09 212.799 165.363 211.458 164.95 210.008C164.537 208.558 164.45 207.034 164.694 205.547L166.917 188.19C167.405 184.952 169.019 181.989 171.475 179.823C173.931 177.657 177.071 176.425 180.345 176.345H315.462C316.962 176.31 318.452 176.605 319.826 177.21C321.2 177.815 322.424 178.714 323.412 179.844C324.399 180.974 325.127 182.307 325.542 183.75C325.957 185.192 326.05 186.708 325.815 188.19L323.582 205.547C323.106 208.789 321.501 211.759 319.05 213.935C316.599 216.111 313.46 217.353 310.184 217.442Z" fill="white"/>
<path d="M310.184 217.96H175.067C173.503 217.993 171.95 217.687 170.515 217.063C169.081 216.439 167.798 215.513 166.754 214.347C165.715 213.143 164.948 211.729 164.505 210.201C164.062 208.674 163.953 207.069 164.186 205.496L166.46 188.119C166.96 184.754 168.631 181.673 171.178 179.417C173.724 177.162 176.985 175.876 180.386 175.787H315.462C317.027 175.751 318.581 176.055 320.018 176.677C321.455 177.299 322.74 178.225 323.785 179.39C324.822 180.595 325.588 182.009 326.029 183.536C326.47 185.064 326.577 186.668 326.343 188.241L324.12 205.607C323.624 208.978 321.954 212.065 319.404 214.325C316.855 216.585 313.59 217.872 310.184 217.96ZM180.345 176.802C177.199 176.9 174.187 178.101 171.834 180.193C169.482 182.286 167.94 185.137 167.475 188.251L165.252 205.618C165.034 207.047 165.128 208.506 165.528 209.895C165.927 211.285 166.623 212.571 167.566 213.667C168.516 214.723 169.682 215.561 170.985 216.126C172.288 216.69 173.698 216.966 175.118 216.935H310.184C313.339 216.848 316.364 215.653 318.726 213.559C321.089 211.466 322.639 208.608 323.105 205.486L325.328 188.119C325.546 186.69 325.452 185.23 325.052 183.841C324.653 182.452 323.957 181.165 323.014 180.07C322.064 179.014 320.898 178.175 319.595 177.611C318.292 177.047 316.882 176.771 315.462 176.802H180.345Z" fill="#231F20"/>
<path d="M190.82 211.667C188.955 211.704 187.103 211.336 185.393 210.59C183.683 209.843 182.155 208.736 180.914 207.343C179.68 205.908 178.77 204.224 178.245 202.407C177.719 200.589 177.591 198.679 177.869 196.807C178.46 192.786 180.452 189.103 183.494 186.407C186.536 183.71 190.431 182.175 194.494 182.07C196.361 182.033 198.214 182.4 199.926 183.147C201.637 183.893 203.167 185 204.411 186.393C205.644 187.829 206.554 189.512 207.08 191.33C207.605 193.148 207.733 195.057 207.456 196.929C206.864 200.952 204.87 204.637 201.827 207.333C198.783 210.03 194.885 211.564 190.82 211.667ZM194.484 183.085C190.669 183.189 187.012 184.633 184.155 187.165C181.298 189.697 179.425 193.154 178.863 196.929C178.604 198.66 178.722 200.426 179.207 202.108C179.692 203.789 180.534 205.346 181.675 206.673C182.821 207.955 184.231 208.975 185.807 209.661C187.384 210.348 189.091 210.686 190.81 210.652C194.626 210.548 198.283 209.103 201.139 206.572C203.996 204.04 205.869 200.583 206.431 196.807C206.691 195.077 206.576 193.311 206.092 191.63C205.609 189.949 204.769 188.391 203.629 187.063C202.478 185.777 201.061 184.755 199.478 184.069C197.894 183.382 196.18 183.046 194.454 183.085H194.484Z" fill="#D1D3D4"/>
<path d="M202.381 192.331C202.276 192.478 202.157 192.614 202.026 192.737C197.966 196.317 193.922 199.896 189.896 203.476C189.48 203.851 189.196 203.851 188.881 203.476L183.634 197.234C183.35 196.899 183.41 196.574 183.796 196.269L185.491 194.899C185.846 194.615 186.131 194.615 186.395 194.899C187.43 196.117 188.469 197.332 189.511 198.543C189.825 198.929 190.109 198.929 190.526 198.543L199.945 190.22C200.351 189.865 200.635 189.865 200.96 190.22C201.285 190.575 201.782 191.164 202.188 191.651C202.281 191.773 202.36 191.906 202.421 192.047L202.381 192.331Z" fill="white"/>
<path d="M307.22 190.626H220.336C219.932 190.626 219.545 190.466 219.26 190.18C218.974 189.895 218.814 189.507 218.814 189.104C218.814 188.7 218.974 188.312 219.26 188.027C219.545 187.741 219.932 187.581 220.336 187.581H307.22C307.624 187.581 308.011 187.741 308.297 188.027C308.582 188.312 308.743 188.7 308.743 189.104C308.743 189.507 308.582 189.895 308.297 190.18C308.011 190.466 307.624 190.626 307.22 190.626Z" fill="#E6E7E8"/>
<path d="M287.621 205.272H218.459C218.055 205.272 217.667 205.112 217.382 204.827C217.096 204.541 216.936 204.154 216.936 203.75C216.936 203.346 217.096 202.959 217.382 202.673C217.667 202.388 218.055 202.227 218.459 202.227H287.621C288.024 202.227 288.412 202.388 288.697 202.673C288.983 202.959 289.143 203.346 289.143 203.75C289.143 204.154 288.983 204.541 288.697 204.827C288.412 205.112 288.024 205.272 287.621 205.272Z" fill="#E6E7E8"/>
<path d="M302.196 244.188C302.091 244.187 301.989 244.155 301.902 244.096L293.985 238.585C293.915 238.536 293.859 238.471 293.821 238.394C293.784 238.318 293.767 238.233 293.772 238.148C293.776 238.065 293.801 237.983 293.843 237.911C293.885 237.838 293.944 237.777 294.015 237.732L303.353 232.221C303.411 232.179 303.476 232.15 303.546 232.135C303.615 232.12 303.687 232.12 303.756 232.135C303.826 232.149 303.891 232.178 303.949 232.22C304.006 232.262 304.055 232.315 304.09 232.376C304.126 232.438 304.148 232.506 304.156 232.576C304.164 232.647 304.157 232.718 304.135 232.786C304.113 232.854 304.078 232.916 304.03 232.969C303.983 233.022 303.925 233.064 303.861 233.094L295.213 238.169L302.48 243.244C302.568 243.305 302.635 243.393 302.67 243.495C302.705 243.596 302.706 243.706 302.675 243.809C302.643 243.912 302.58 244.002 302.494 244.066C302.408 244.131 302.304 244.166 302.196 244.167V244.188Z" fill="#D1D3D4"/>
<path d="M309.007 244.188C308.895 244.189 308.786 244.153 308.697 244.086C308.608 244.019 308.543 243.924 308.513 243.817C308.483 243.709 308.489 243.595 308.531 243.491C308.572 243.388 308.647 243.301 308.743 243.244L317.391 238.169L310.123 233.094C310.013 233.016 309.938 232.897 309.915 232.764C309.892 232.63 309.923 232.494 310.001 232.383C310.079 232.273 310.198 232.198 310.331 232.175C310.465 232.152 310.601 232.183 310.712 232.261L318.619 237.773C318.688 237.823 318.744 237.888 318.783 237.964C318.822 238.04 318.842 238.124 318.842 238.209C318.837 238.294 318.811 238.376 318.767 238.449C318.723 238.522 318.661 238.582 318.588 238.625L309.26 244.137C309.182 244.177 309.094 244.194 309.007 244.188Z" fill="#D1D3D4"/>
<path d="M111.447 153.812C111.447 153.812 120.014 168.895 128.316 170.255C138.558 171.94 153.57 162.906 153.57 162.906L145.145 154.634L127.89 154.573L118.451 135.288L111.447 153.812Z" fill="#FF9900"/>
<path d="M125.464 252.165L126.094 258.661L135.157 257.961L134.305 250.156L125.464 252.165Z" fill="white"/>
<path d="M126.093 259.169C125.968 259.169 125.848 259.123 125.755 259.038C125.663 258.953 125.606 258.837 125.596 258.712L124.957 252.216C124.946 252.093 124.98 251.969 125.053 251.869C125.125 251.768 125.232 251.697 125.352 251.668L134.193 249.638C134.263 249.623 134.335 249.622 134.405 249.636C134.474 249.65 134.541 249.679 134.599 249.719C134.658 249.762 134.707 249.817 134.744 249.88C134.781 249.943 134.804 250.012 134.812 250.085L135.665 257.88C135.675 257.948 135.67 258.018 135.651 258.085C135.631 258.151 135.598 258.213 135.553 258.266C135.463 258.371 135.336 258.436 135.198 258.448L126.134 259.149L126.093 259.169ZM126.012 252.561L126.55 258.124L134.599 257.494L133.868 250.775L126.012 252.561Z" fill="#231F20"/>
<path d="M61.9657 237.773L56.1498 242.401L59.4384 248.633L65.2442 246.065L61.9657 237.773Z" fill="white"/>
<path d="M59.4384 249.141C59.3469 249.142 59.2568 249.118 59.178 249.072C59.0992 249.025 59.0348 248.958 58.9918 248.877L55.7032 242.635C55.645 242.532 55.6263 242.411 55.6506 242.295C55.6749 242.179 55.7405 242.076 55.8352 242.005L61.641 237.377C61.7037 237.329 61.7761 237.295 61.8531 237.277C61.9302 237.26 62.0102 237.259 62.0876 237.275C62.1647 237.296 62.2359 237.334 62.2958 237.387C62.3557 237.44 62.4025 237.506 62.4327 237.58L65.7213 245.883C65.7687 246.005 65.7666 246.142 65.7155 246.263C65.6643 246.384 65.5682 246.481 65.4472 246.532L59.6516 249.1C59.5841 249.128 59.5115 249.142 59.4384 249.141ZM56.84 242.533L59.7226 247.984L64.6454 245.801L61.7932 238.595L56.84 242.533Z" fill="#231F20"/>
<path d="M79.4542 178.639L80.0632 220.163L59.7632 237.742L63.945 248.085C63.945 248.085 93.4612 233.875 98.0591 227.481C102.657 221.086 103.347 205.597 103.347 205.597L118.481 220.822L124.287 253.789L135.837 253.16C135.837 253.16 134.366 228.973 134.366 219.99C134.366 211.007 111.488 180.111 111.488 180.111L79.4542 178.639Z" fill="#231F20"/>
<path d="M124.317 254.267C124.198 254.268 124.083 254.227 123.991 254.151C123.9 254.074 123.839 253.968 123.82 253.85L118.034 221.005L103.824 206.734C103.571 210.459 102.464 222.223 98.5159 227.745C93.8875 234.2 65.4168 247.933 64.2089 248.512C64.1448 248.539 64.0757 248.553 64.0059 248.553C63.9362 248.553 63.8671 248.539 63.8029 248.512C63.7381 248.487 63.6792 248.449 63.6302 248.4C63.5812 248.351 63.5432 248.292 63.5187 248.227L59.3471 237.874C59.3079 237.778 59.2996 237.671 59.3232 237.569C59.3468 237.468 59.4012 237.376 59.479 237.306L79.5456 219.99L78.9467 178.69C78.9457 178.622 78.9588 178.554 78.9849 178.491C79.0111 178.428 79.0499 178.372 79.099 178.324C79.1466 178.274 79.2052 178.234 79.2703 178.21C79.3354 178.185 79.4053 178.176 79.4745 178.182L111.538 179.623C111.614 179.625 111.688 179.644 111.755 179.679C111.822 179.715 111.88 179.765 111.924 179.826C112.868 181.095 134.904 210.957 134.904 220.01C134.904 228.871 136.355 252.906 136.375 253.15C136.381 253.284 136.335 253.415 136.246 253.515C136.157 253.616 136.032 253.678 135.898 253.688L124.348 254.317L124.317 254.267ZM103.378 205.1C103.51 205.101 103.637 205.152 103.733 205.242L118.867 220.467C118.939 220.539 118.988 220.631 119.009 220.731L124.744 253.262L135.33 252.683C135.117 249.141 133.889 228.161 133.889 219.99C133.889 211.637 113.193 183.237 111.254 180.608L79.9719 179.197L80.5707 220.193C80.5701 220.266 80.5544 220.338 80.5247 220.404C80.4951 220.47 80.452 220.53 80.3982 220.579L60.4128 237.884L64.2394 247.395C68.0964 245.517 93.5221 232.982 97.6735 227.186C102.139 220.964 102.86 205.729 102.87 205.577C102.871 205.478 102.903 205.382 102.962 205.302C103.02 205.222 103.101 205.162 103.195 205.13C103.254 205.11 103.316 205.099 103.378 205.1Z" fill="#231F20"/>
<path d="M77.3735 182.75L78.1551 162.379C78.1551 162.379 77.81 137.247 87.0363 132.761C96.2627 128.275 114.746 130.203 118.329 135.288C121.912 140.373 113.416 182.75 113.416 182.75H77.3735Z" fill="#FF9900"/>
<path d="M116.197 113.76C116.087 111.616 115.169 109.593 113.629 108.096C110.371 105.163 103.083 104.036 100.363 108.37C99.4857 108.443 98.6556 108.8 97.9982 109.385C97.1687 110.201 96.5668 111.219 96.2524 112.339C94.7502 116.643 95.9885 121.21 97.6531 125.372C98.159 126.787 98.9619 128.078 100.008 129.158C102.556 131.584 106.098 130.254 108.95 129.036C110.868 128.275 112.574 127.064 113.924 125.504C115.507 123.565 116.309 119.941 116.329 117.475C116.359 116.235 116.315 114.995 116.197 113.76Z" fill="white"/>
<path d="M103.53 130.964C102.819 130.984 102.111 130.862 101.447 130.606C100.783 130.35 100.177 129.964 99.6629 129.472C98.5502 128.35 97.7008 126.994 97.1761 125.504C95.6739 121.728 94.1311 116.785 95.7754 112.116C96.1215 110.918 96.7719 109.831 97.6633 108.959C98.3465 108.389 99.1839 108.036 100.069 107.944C100.628 107.154 101.351 106.493 102.188 106.006C103.025 105.519 103.957 105.218 104.921 105.122C106.529 104.926 108.16 105.06 109.715 105.515C111.27 105.971 112.716 106.738 113.964 107.772C115.61 109.34 116.591 111.48 116.705 113.75C116.819 114.988 116.863 116.232 116.837 117.475C116.837 120.114 115.943 123.829 114.319 125.828C112.92 127.458 111.143 128.72 109.143 129.503C107.386 130.353 105.479 130.849 103.53 130.964ZM106.311 105.995C105.894 105.991 105.476 106.019 105.063 106.077C104.204 106.16 103.376 106.434 102.636 106.879C101.897 107.323 101.266 107.926 100.79 108.645C100.747 108.712 100.688 108.768 100.62 108.809C100.551 108.849 100.473 108.873 100.394 108.878C99.6439 108.933 98.932 109.228 98.3637 109.72C97.6076 110.481 97.0559 111.42 96.76 112.451C95.2476 116.795 96.7599 121.515 98.1505 125.128C98.6227 126.483 99.3887 127.717 100.394 128.742C102.627 130.873 105.763 129.757 108.778 128.518C110.625 127.796 112.269 126.636 113.568 125.138C115.02 123.342 115.832 119.82 115.852 117.414C115.879 116.211 115.835 115.008 115.72 113.811C115.63 111.789 114.769 109.879 113.315 108.472C111.338 106.859 108.862 105.983 106.311 105.995Z" fill="#231F20"/>
<path d="M109.417 130.01L108.788 136.161C108.788 136.161 107.346 139.44 103.54 137.805C102.45 137.331 101.512 136.564 100.832 135.59C100.151 134.615 99.7533 133.471 99.6832 132.284L100.891 121.261C100.891 121.261 104.098 120.246 104.332 113.669C104.332 113.669 108.148 113.669 114.167 113.953C114.167 113.953 115 124.103 113.995 127.087C112.99 130.071 109.417 130.01 109.417 130.01Z" fill="white"/>
<path d="M105.56 138.79C104.797 138.775 104.044 138.605 103.347 138.293C102.164 137.784 101.148 136.955 100.412 135.898C99.6767 134.842 99.2518 133.6 99.1858 132.314L100.394 121.23C100.405 121.134 100.444 121.043 100.505 120.968C100.566 120.893 100.647 120.836 100.739 120.804C100.739 120.804 103.621 119.708 103.834 113.699C103.84 113.568 103.896 113.444 103.99 113.353C104.085 113.263 104.211 113.212 104.342 113.212C104.342 113.212 108.24 113.212 114.198 113.496C114.321 113.498 114.439 113.546 114.529 113.631C114.619 113.715 114.675 113.83 114.685 113.953C114.685 114.379 115.507 124.245 114.482 127.3C114.122 128.233 113.495 129.04 112.679 129.617C111.862 130.195 110.894 130.519 109.894 130.548L109.305 136.263C109.316 136.316 109.316 136.371 109.305 136.425C108.959 137.125 108.426 137.716 107.765 138.134C107.104 138.551 106.341 138.778 105.56 138.79ZM101.378 121.626L100.18 132.335C100.258 133.415 100.632 134.454 101.26 135.336C101.889 136.219 102.748 136.911 103.743 137.339C106.788 138.658 108.077 136.456 108.3 136.029L108.92 129.939C108.934 129.814 108.994 129.699 109.087 129.615C109.181 129.531 109.302 129.484 109.427 129.482C109.559 129.482 112.645 129.482 113.487 126.904C114.33 124.326 113.822 116.399 113.68 114.42C109.184 114.227 105.966 114.176 104.799 114.156C104.545 119.505 102.221 121.149 101.368 121.606L101.378 121.626Z" fill="#231F20"/>
<path d="M103.246 121.464C103.205 120.897 102.98 120.359 102.606 119.931C102.242 119.547 101.813 119.231 101.338 118.998C101.094 118.836 100.816 118.735 100.526 118.703C100.322 118.701 100.119 118.736 99.9268 118.805C99.4652 118.947 99.0671 119.245 98.8001 119.647C98.6276 119.997 98.544 120.384 98.5565 120.774C98.5348 121.196 98.5689 121.619 98.658 122.032C98.7555 122.441 98.933 122.825 99.1801 123.165C99.4272 123.504 99.7391 123.791 100.098 124.009C100.456 124.227 100.855 124.372 101.27 124.435C101.684 124.498 102.108 124.478 102.515 124.377" fill="white"/>
<path d="M101.754 124.986C101.077 124.987 100.413 124.801 99.8354 124.448C98.994 123.932 98.3917 123.104 98.1607 122.144C98.0613 121.688 98.0237 121.22 98.049 120.753C98.0388 120.281 98.147 119.813 98.3637 119.393C98.6967 118.901 99.1926 118.541 99.7644 118.378C100.016 118.279 100.286 118.234 100.556 118.246C100.918 118.283 101.266 118.404 101.571 118.602C102.098 118.854 102.575 119.197 102.982 119.617C103.434 120.127 103.702 120.773 103.743 121.454C103.752 121.587 103.707 121.718 103.62 121.818C103.533 121.919 103.409 121.981 103.276 121.992C103.143 121.998 103.012 121.953 102.91 121.866C102.809 121.78 102.743 121.658 102.728 121.525C102.696 121.068 102.518 120.634 102.221 120.287C101.888 119.951 101.504 119.67 101.084 119.454C100.906 119.338 100.705 119.262 100.495 119.231C100.356 119.234 100.219 119.262 100.089 119.312C99.7423 119.409 99.4404 119.624 99.2366 119.921C99.1082 120.197 99.0457 120.5 99.0539 120.804C99.029 121.182 99.0563 121.561 99.1351 121.931C99.3084 122.626 99.7452 123.227 100.353 123.606C100.964 123.969 101.693 124.079 102.383 123.91C102.518 123.876 102.66 123.898 102.779 123.969C102.898 124.04 102.984 124.156 103.017 124.291C103.051 124.425 103.03 124.568 102.959 124.687C102.887 124.806 102.771 124.891 102.637 124.925C102.346 124.979 102.05 125 101.754 124.986Z" fill="#231F20"/>
<path d="M109.123 132.964C107.808 132.603 106.633 131.853 105.753 130.812C105.388 130.424 105.131 129.947 105.008 129.429C104.886 128.91 104.901 128.369 105.053 127.858C105.579 128.514 106.242 129.047 106.996 129.418C107.75 129.79 108.577 129.992 109.417 130.01L109.123 132.964Z" fill="#231F20"/>
<path d="M109.123 133.471H109.021C107.602 133.089 106.331 132.286 105.377 131.167C104.945 130.711 104.643 130.148 104.502 129.536C104.361 128.924 104.387 128.285 104.575 127.686C104.605 127.602 104.658 127.527 104.728 127.472C104.798 127.416 104.882 127.381 104.971 127.371C105.061 127.356 105.153 127.365 105.237 127.4C105.322 127.434 105.395 127.491 105.448 127.564C105.933 128.151 106.536 128.628 107.218 128.964C107.901 129.3 108.647 129.487 109.407 129.513C109.551 129.517 109.689 129.575 109.793 129.675C109.84 129.729 109.877 129.792 109.899 129.86C109.922 129.928 109.931 130 109.925 130.071L109.62 133.025C109.615 133.094 109.595 133.162 109.561 133.223C109.528 133.284 109.482 133.338 109.427 133.38C109.336 133.438 109.231 133.47 109.123 133.471ZM105.438 128.985C105.504 129.543 105.746 130.066 106.128 130.477C106.825 131.27 107.697 131.889 108.676 132.284L108.859 130.497C107.587 130.371 106.388 129.841 105.438 128.985Z" fill="#231F20"/>
<path d="M110.737 124.631C110.248 124.616 109.767 124.512 109.316 124.326C109.19 124.275 109.091 124.176 109.038 124.052C108.986 123.927 108.985 123.787 109.036 123.661C109.088 123.536 109.186 123.437 109.311 123.384C109.436 123.332 109.576 123.331 109.701 123.382C110.117 123.572 110.578 123.638 111.031 123.575C110.822 122.42 110.428 121.306 109.864 120.276C109.804 120.155 109.796 120.016 109.84 119.888C109.883 119.76 109.976 119.656 110.097 119.596C110.218 119.537 110.358 119.528 110.485 119.572C110.613 119.616 110.718 119.709 110.777 119.83C112.624 123.585 111.965 124.133 111.792 124.316C111.492 124.549 111.115 124.661 110.737 124.631Z" fill="#231F20"/>
<path d="M109.204 126.691C108.572 126.707 107.952 126.526 107.428 126.174C107.139 125.953 106.9 125.675 106.725 125.357C106.55 125.039 106.444 124.688 106.413 124.326C106.403 124.26 106.406 124.193 106.423 124.128C106.44 124.063 106.469 124.002 106.51 123.949C106.551 123.896 106.602 123.852 106.66 123.819C106.718 123.786 106.783 123.765 106.849 123.758C106.981 123.74 107.114 123.775 107.22 123.855C107.327 123.935 107.397 124.053 107.418 124.184C107.431 124.412 107.494 124.634 107.6 124.835C107.707 125.036 107.856 125.212 108.037 125.351C108.5 125.63 109.045 125.738 109.579 125.656C109.711 125.635 109.846 125.665 109.955 125.741C110.065 125.817 110.141 125.931 110.168 126.062C110.192 126.194 110.163 126.33 110.086 126.44C110.01 126.55 109.894 126.626 109.762 126.651C109.578 126.684 109.391 126.698 109.204 126.691Z" fill="#231F20"/>
<path d="M108.483 118.886C108.412 118.885 108.342 118.869 108.277 118.84C108.212 118.81 108.155 118.767 108.108 118.713C108.022 118.607 107.916 118.519 107.796 118.454C107.675 118.39 107.543 118.35 107.407 118.338C107.033 118.365 106.678 118.51 106.392 118.754C106.344 118.803 106.286 118.842 106.222 118.868C106.158 118.895 106.089 118.907 106.02 118.906C105.951 118.905 105.883 118.889 105.82 118.86C105.757 118.832 105.7 118.79 105.654 118.739C105.607 118.688 105.572 118.628 105.55 118.562C105.527 118.497 105.519 118.427 105.524 118.358C105.53 118.289 105.549 118.222 105.582 118.161C105.614 118.1 105.658 118.046 105.712 118.003C106.203 117.563 106.84 117.321 107.499 117.323C107.77 117.342 108.035 117.416 108.277 117.54C108.52 117.664 108.735 117.835 108.91 118.043C108.997 118.146 109.04 118.279 109.031 118.414C109.021 118.549 108.96 118.674 108.859 118.764C108.808 118.808 108.748 118.842 108.683 118.863C108.619 118.884 108.551 118.892 108.483 118.886Z" fill="#231F20"/>
<path d="M111.538 119.505C111.465 119.519 111.389 119.519 111.315 119.505C111.255 119.476 111.201 119.435 111.157 119.385C111.113 119.335 111.079 119.277 111.057 119.213C111.035 119.15 111.026 119.083 111.031 119.017C111.035 118.95 111.052 118.885 111.082 118.825C111.191 118.602 111.349 118.407 111.544 118.254C111.739 118.101 111.966 117.995 112.208 117.942C112.521 117.924 112.833 117.984 113.116 118.117C113.4 118.25 113.646 118.452 113.832 118.703C113.88 118.75 113.918 118.806 113.943 118.868C113.969 118.93 113.982 118.996 113.982 119.063C113.982 119.13 113.969 119.197 113.943 119.259C113.918 119.32 113.88 119.377 113.832 119.424C113.737 119.517 113.61 119.569 113.477 119.569C113.344 119.569 113.217 119.517 113.122 119.424C112.827 119.109 112.574 118.947 112.391 118.977C112.208 119.008 112.046 119.251 112.026 119.302C111.969 119.376 111.895 119.433 111.809 119.469C111.724 119.504 111.63 119.517 111.538 119.505Z" fill="#231F20"/>
<path d="M105.306 138.526L101.916 140.201L103.895 142.901L98.0186 167.992L103.591 174.335L108.483 165.728L105.662 142.931L107.905 140.495L105.306 138.526Z" fill="white"/>
<path d="M56.1498 242.401L49.329 247.03C49.329 247.03 60.9 266.68 64.1175 261.605C64.9904 260.204 59.4384 248.623 59.4384 248.623L56.1498 242.401Z" fill="#231F20"/>
<path d="M62.7169 262.965C58.2611 262.904 49.867 248.887 48.9231 247.293C48.8568 247.182 48.8357 247.05 48.864 246.923C48.8923 246.797 48.9679 246.686 49.0753 246.613L55.8251 241.985C55.8835 241.944 55.9497 241.916 56.0196 241.902C56.0894 241.888 56.1614 241.889 56.2311 241.904C56.3003 241.923 56.3649 241.957 56.4207 242.002C56.4766 242.048 56.5226 242.104 56.5559 242.168L59.8851 248.41C61.5903 251.983 65.4574 260.407 64.5338 261.889C64.3536 262.214 64.0904 262.484 63.7711 262.673C63.4518 262.862 63.088 262.963 62.7169 262.965ZM50.0091 247.182C52.6887 251.648 59.5095 261.909 62.6966 261.95C62.9043 261.946 63.1073 261.888 63.2854 261.781C63.4635 261.674 63.6105 261.522 63.7116 261.341C64.077 260.468 61.5598 254.175 59.002 248.857L55.957 243.142L50.0091 247.182Z" fill="#231F20"/>
<path d="M126.012 258.662C126.012 258.662 125.799 266.244 126.489 266.365C127.18 266.487 148.708 263.584 147.074 261.94C145.439 260.296 135.157 257.961 135.157 257.961L126.012 258.662Z" fill="#231F20"/>
<path d="M126.408 266.873C125.992 266.792 125.292 266.67 125.515 258.651C125.52 258.527 125.57 258.409 125.656 258.319C125.742 258.229 125.858 258.174 125.982 258.164L135.117 257.454H135.269C136.335 257.697 145.744 259.869 147.449 261.564C147.567 261.679 147.645 261.829 147.671 261.992C147.697 262.155 147.669 262.322 147.591 262.468C146.434 264.65 126.875 266.873 126.408 266.873ZM126.51 259.139C126.398 261.385 126.479 263.636 126.753 265.868C129.139 265.807 144.536 263.402 146.525 262.133C145.003 261.006 139.014 259.362 135.127 258.469L126.51 259.139Z" fill="#231F20"/>
<path d="M114.035 180.314H113.964C113.896 180.306 113.831 180.285 113.771 180.252C113.712 180.218 113.66 180.173 113.618 180.119C113.576 180.065 113.546 180.003 113.529 179.937C113.511 179.871 113.508 179.803 113.518 179.735C114.309 173.544 118.166 149.752 118.207 149.519C118.21 149.445 118.228 149.374 118.261 149.308C118.293 149.243 118.339 149.185 118.396 149.138C118.453 149.092 118.519 149.058 118.589 149.039C118.66 149.02 118.734 149.016 118.806 149.028C118.878 149.039 118.947 149.066 119.008 149.106C119.07 149.146 119.122 149.199 119.161 149.261C119.2 149.322 119.226 149.392 119.236 149.464C119.247 149.537 119.242 149.611 119.222 149.681C119.222 149.925 115.334 173.696 114.543 179.867C114.526 179.99 114.465 180.103 114.372 180.185C114.279 180.267 114.159 180.312 114.035 180.314Z" fill="#231F20"/>
<path d="M155.874 172.529C172.399 172.529 185.796 159.132 185.796 142.606C185.796 126.081 172.399 112.684 155.874 112.684C139.348 112.684 125.951 126.081 125.951 142.606C125.951 159.132 139.348 172.529 155.874 172.529Z" fill="#231F20"/>
<path d="M155.853 173.046C149.906 173.046 144.09 171.305 139.122 168.037C134.153 164.769 130.25 160.118 127.895 154.657C125.539 149.197 124.834 143.167 125.867 137.31C126.899 131.454 129.624 126.028 133.704 121.702C137.785 117.376 143.043 114.34 148.829 112.968C154.615 111.596 160.677 111.948 166.265 113.981C171.853 116.014 176.724 119.639 180.276 124.409C183.828 129.178 185.906 134.883 186.252 140.82C186.718 148.876 183.968 156.787 178.605 162.816C173.242 168.845 165.705 172.499 157.65 172.975C157.054 173.023 156.455 173.046 155.853 173.046ZM155.914 113.161C155.336 113.161 154.747 113.161 154.158 113.161C148.344 113.497 142.761 115.549 138.114 119.059C133.467 122.569 129.965 127.378 128.052 132.878C126.139 138.379 125.901 144.323 127.367 149.959C128.833 155.594 131.938 160.669 136.289 164.539C140.64 168.41 146.042 170.903 151.81 171.703C157.578 172.503 163.454 171.574 168.694 169.034C173.934 166.494 178.303 162.456 181.248 157.432C184.193 152.408 185.581 146.623 185.237 140.81C184.795 133.327 181.515 126.295 176.066 121.148C170.617 116 163.41 113.126 155.914 113.11V113.161Z" fill="#231F20"/>
<path d="M151.255 172.803C167.781 172.803 181.178 159.406 181.178 142.88C181.178 126.355 167.781 112.958 151.255 112.958C134.73 112.958 121.333 126.355 121.333 142.88C121.333 159.406 134.73 172.803 151.255 172.803Z" fill="#505ABB"/>
<path d="M151.235 173.3C143.255 173.061 135.689 169.693 130.172 163.923C124.654 158.152 121.628 150.443 121.748 142.46C121.867 134.477 125.122 126.862 130.809 121.259C136.497 115.656 144.16 112.515 152.144 112.515C160.127 112.515 167.79 115.656 173.478 121.259C179.165 126.862 182.42 134.477 182.539 142.46C182.659 150.443 179.633 158.152 174.115 163.923C168.598 169.693 161.032 173.061 153.052 173.3C152.423 173.3 151.814 173.3 151.235 173.3ZM151.296 113.415C150.717 113.415 150.139 113.415 149.56 113.415C141.832 113.643 134.504 116.902 129.159 122.489C123.815 128.075 120.882 135.541 120.996 143.271C121.11 151.002 124.261 158.377 129.768 163.804C135.276 169.23 142.697 172.272 150.428 172.272C158.16 172.272 165.581 169.23 171.088 163.804C176.595 158.377 179.746 151.002 179.86 143.271C179.974 135.541 177.042 128.075 171.697 122.489C166.352 116.902 159.024 113.643 151.296 113.415Z" fill="#231F20"/>
<path d="M170.114 132.802C169.92 133.117 169.699 133.416 169.454 133.695L146.231 156.887C146.114 157.074 145.952 157.228 145.759 157.335C145.567 157.441 145.35 157.497 145.13 157.497C144.91 157.497 144.693 157.441 144.5 157.335C144.308 157.228 144.145 157.074 144.028 156.887C139.664 152.388 135.31 147.891 130.965 143.398C130.8 143.275 130.667 143.114 130.579 142.928C130.49 142.742 130.447 142.537 130.455 142.331C130.463 142.125 130.521 141.925 130.624 141.746C130.727 141.568 130.872 141.417 131.047 141.307L134.325 138.354C134.443 138.206 134.593 138.086 134.763 138.004C134.934 137.922 135.12 137.879 135.31 137.879C135.499 137.879 135.686 137.922 135.856 138.004C136.027 138.086 136.176 138.206 136.294 138.354C138.859 140.986 141.433 143.611 144.018 146.23C144.82 147.042 145.419 147.052 146.221 146.23L164.278 128.264C164.395 128.086 164.555 127.94 164.743 127.839C164.931 127.738 165.14 127.685 165.354 127.685C165.567 127.685 165.777 127.738 165.965 127.839C166.152 127.94 166.312 128.086 166.43 128.264C167.445 129.279 168.46 130.294 169.475 131.309C169.704 131.582 169.914 131.871 170.104 132.172L170.114 132.802Z" fill="white"/>
<path d="M122.358 159.811C122.358 159.811 128.448 159.039 129.382 158.41C130.316 157.781 132.884 153.66 134.213 153.335C135.543 153.01 135.3 156.065 134.213 157.314C133.127 158.562 139.36 154.015 140.375 155.03C141.05 155.915 141.416 156.997 141.416 158.111C141.416 159.224 141.05 160.306 140.375 161.191C138.659 163.292 128.367 167.362 122.988 167.626" fill="white"/>
<path d="M122.988 168.083C122.857 168.086 122.731 168.037 122.636 167.948C122.541 167.859 122.485 167.736 122.48 167.606C122.476 167.539 122.485 167.472 122.507 167.409C122.529 167.346 122.563 167.288 122.607 167.238C122.651 167.188 122.705 167.147 122.765 167.118C122.825 167.089 122.89 167.072 122.957 167.068C128.032 166.814 138.355 162.815 139.979 160.815C140.571 160.026 140.891 159.067 140.891 158.08C140.891 157.094 140.571 156.134 139.979 155.345C139.431 155.111 136.629 156.725 135.706 157.263C134.285 158.075 133.99 158.278 133.676 157.852C133.361 157.425 133.523 157.314 133.807 156.989C134.145 156.557 134.379 156.053 134.491 155.516C134.604 154.98 134.592 154.425 134.457 153.893C134.457 153.832 134.396 153.812 134.305 153.893C133.676 154.035 132.275 155.751 131.422 156.877C130.916 157.627 130.316 158.31 129.636 158.907C128.621 159.557 123.444 160.257 122.409 160.389C122.276 160.406 122.141 160.37 122.035 160.288C121.928 160.207 121.858 160.086 121.841 159.953C121.831 159.887 121.834 159.819 121.851 159.754C121.868 159.69 121.897 159.629 121.938 159.576C121.979 159.523 122.03 159.478 122.088 159.445C122.146 159.413 122.211 159.392 122.277 159.384C124.754 159.07 128.499 158.44 129.078 158.065C129.647 157.512 130.166 156.911 130.631 156.268C132.072 154.441 133.168 153.132 134.071 152.919C134.31 152.853 134.564 152.87 134.792 152.966C135.02 153.061 135.209 153.231 135.33 153.447C135.713 154.39 135.713 155.446 135.33 156.39C137.888 154.918 139.908 153.873 140.73 154.695C141.485 155.674 141.894 156.875 141.894 158.111C141.894 159.346 141.485 160.547 140.73 161.526C138.923 163.749 128.55 167.88 122.977 168.154L122.988 168.083Z" fill="#231F20"/>
<path d="M89.1475 132.609C89.1475 132.609 91.7358 158.633 99.2975 158.755C108.504 158.917 124.236 158.572 124.236 158.572L127.281 168.387C127.281 168.387 102.921 174.234 92.6696 169.798C82.4181 165.363 81.6771 147.813 81.6771 147.813L89.1475 132.609Z" fill="#FF9900"/>
<path d="M106.758 159.567C102.596 159.567 99.0843 159.425 98.0998 158.999C95.41 157.811 90.467 140.729 89.5027 137.349C89.4843 137.283 89.4791 137.214 89.4876 137.146C89.496 137.078 89.5179 137.012 89.5518 136.953C89.5858 136.893 89.6313 136.841 89.6856 136.799C89.7399 136.757 89.8019 136.727 89.8681 136.709C89.9334 136.689 90.0021 136.683 90.07 136.69C90.1379 136.697 90.2037 136.718 90.2634 136.751C90.3232 136.784 90.3755 136.829 90.4175 136.883C90.4594 136.937 90.4901 136.998 90.5076 137.065C92.6898 144.768 96.7904 157.273 98.5261 158.034C100.262 158.796 114.888 158.481 124.206 158.034C124.275 158.029 124.344 158.038 124.41 158.06C124.476 158.082 124.536 158.118 124.587 158.164C124.639 158.211 124.68 158.268 124.709 158.331C124.737 158.394 124.753 158.462 124.754 158.532C124.758 158.601 124.748 158.67 124.725 158.735C124.702 158.8 124.667 158.859 124.62 158.91C124.574 158.961 124.518 159.003 124.455 159.032C124.393 159.061 124.325 159.077 124.256 159.08C122.744 159.161 113.822 159.567 106.758 159.567Z" fill="#231F20"/>
<path d="M103.591 171.788C99.8111 171.922 96.0359 171.414 92.426 170.285C82.7733 166.621 81.2001 152.939 81.2001 152.35C81.1858 152.215 81.2258 152.079 81.3114 151.972C81.397 151.866 81.5211 151.797 81.6568 151.782C81.7938 151.768 81.931 151.807 82.0391 151.893C82.1472 151.978 82.2176 152.102 82.2354 152.239C82.2354 152.381 83.7985 165.87 92.8929 169.301C102.16 172.793 123.12 168.743 123.343 168.702C123.465 168.702 123.583 168.744 123.678 168.822C123.772 168.899 123.837 169.007 123.86 169.126C123.884 169.246 123.866 169.37 123.809 169.478C123.751 169.586 123.659 169.67 123.546 169.717C116.964 170.965 110.289 171.658 103.591 171.788Z" fill="#231F20"/>
</svg>
