<svg width="85" height="85" viewBox="0 0 85 85" fill="none" xmlns="http://www.w3.org/2000/svg">
<g clip-path="url(#clip0_104_2)">
<path d="M49.8917 81.519L35.1372 67.1318L66.8239 34.774L82.0997 49.7456L49.8917 81.519Z" fill="#8AB4F8"/>
<path d="M49.9541 17.9091L35.2538 2.89899L3.10781 34.7401C-1.03594 38.8839 -1.03594 45.6019 3.10781 49.7503L34.7703 81.6206L49.7416 67.6149L25.6182 42.2454L49.9544 17.9091H49.9541Z" fill="#4285F4"/>
<path d="M81.8872 34.9861L50.0122 3.11112C45.8638 -1.03728 39.1362 -1.03728 34.9878 3.11112C30.8391 7.25985 30.8391 13.9875 34.9878 18.1362L66.8628 50.0112C71.0112 54.1596 77.7388 54.1596 81.8872 50.0112C86.0359 45.8625 86.0359 39.1348 81.8872 34.9864V34.9861Z" fill="#8AB4F8"/>
<path d="M42.256 85.0014C47.9907 85.0014 52.6396 80.3525 52.6396 74.6177C52.6396 68.883 47.9907 64.2341 42.256 64.2341C36.5212 64.2341 31.8723 68.883 31.8723 74.6177C31.8723 80.3525 36.5212 85.0014 42.256 85.0014Z" fill="#246FDB"/>
</g>
<defs>
<clipPath id="clip0_104_2">
<rect width="85" height="85" fill="white"/>
</clipPath>
</defs>
</svg>
