<svg width="148" height="38" viewBox="0 0 193 43" fill="none" xmlns="http://www.w3.org/2000/svg">
<g clip-path="url(#clip0_226_2)">
<path d="M25.2393 41.239L17.7753 33.9608L33.8051 17.5916L41.5328 25.1654L25.2393 41.239Z" fill="#8AB4F8"/>
<path d="M25.2709 9.05992L17.8342 1.46655L1.57219 17.5744C-0.524062 19.6707 -0.524062 23.0692 1.57219 25.1678L17.5897 41.2904L25.1634 34.2052L12.9598 21.3712L25.2711 9.05992H25.2709Z" fill="#4285F4"/>
<path d="M41.4253 17.6989L25.3003 1.57389C23.2017 -0.524711 19.7983 -0.524711 17.6997 1.57389C15.6009 3.67266 15.6009 7.07604 17.6997 9.17481L33.8247 25.2998C35.9233 27.3984 39.3267 27.3984 41.4253 25.2998C43.5241 23.201 43.5241 19.7977 41.4253 17.6991V17.6989Z" fill="#8AB4F8"/>
<path d="M21.3765 43.0006C24.2776 43.0006 26.6294 40.6488 26.6294 37.7478C26.6294 34.8467 24.2776 32.4949 21.3765 32.4949C18.4755 32.4949 16.1237 34.8467 16.1237 37.7478C16.1237 40.6488 18.4755 43.0006 21.3765 43.0006Z" fill="#246FDB"/>
</g>
<path d="M57.684 30.716C58.476 30.716 59.124 30.656 59.628 30.536C60.156 30.392 60.576 30.212 60.888 29.996C61.2 29.756 61.416 29.48 61.536 29.168C61.656 28.856 61.716 28.508 61.716 28.124C61.716 27.308 61.332 26.636 60.564 26.108C59.796 25.556 58.476 24.968 56.604 24.344C55.788 24.056 54.972 23.732 54.156 23.372C53.34 22.988 52.608 22.52 51.96 21.968C51.312 21.392 50.784 20.708 50.376 19.916C49.968 19.1 49.764 18.116 49.764 16.964C49.764 15.812 49.98 14.78 50.412 13.868C50.844 12.932 51.456 12.14 52.248 11.492C53.04 10.844 54 10.352 55.128 10.016C56.256 9.656 57.528 9.476 58.944 9.476C60.624 9.476 62.076 9.656 63.3 10.016C64.524 10.376 65.532 10.772 66.324 11.204L64.704 15.632C64.008 15.272 63.228 14.96 62.364 14.696C61.524 14.408 60.504 14.264 59.304 14.264C57.96 14.264 56.988 14.456 56.388 14.84C55.812 15.2 55.524 15.764 55.524 16.532C55.524 16.988 55.632 17.372 55.848 17.684C56.064 17.996 56.364 18.284 56.748 18.548C57.156 18.788 57.612 19.016 58.116 19.232C58.644 19.424 59.22 19.628 59.844 19.844C61.14 20.324 62.268 20.804 63.228 21.284C64.188 21.74 64.98 22.28 65.604 22.904C66.252 23.528 66.732 24.26 67.044 25.1C67.356 25.94 67.512 26.96 67.512 28.16C67.512 30.488 66.696 32.3 65.064 33.596C63.432 34.868 60.972 35.504 57.684 35.504C56.58 35.504 55.584 35.432 54.696 35.288C53.808 35.168 53.016 35.012 52.32 34.82C51.648 34.628 51.06 34.424 50.556 34.208C50.076 33.992 49.668 33.788 49.332 33.596L50.916 29.132C51.66 29.54 52.572 29.912 53.652 30.248C54.756 30.56 56.1 30.716 57.684 30.716ZM76.8371 35H71.4731V16.064H76.8371V35ZM77.3411 10.592C77.3411 11.576 77.0171 12.356 76.3691 12.932C75.7451 13.484 75.0011 13.76 74.1371 13.76C73.2731 13.76 72.5171 13.484 71.8691 12.932C71.2451 12.356 70.9331 11.576 70.9331 10.592C70.9331 9.608 71.2451 8.84 71.8691 8.288C72.5171 7.712 73.2731 7.424 74.1371 7.424C75.0011 7.424 75.7451 7.712 76.3691 8.288C77.0171 8.84 77.3411 9.608 77.3411 10.592Z" fill="#FF9900"/>
<path d="M109.392 10.052V14.84H101.868V35H96.2518V14.84H88.7278V10.052H109.392ZM116.873 22.508C116.873 23.732 117.017 24.836 117.305 25.82C117.617 26.804 118.049 27.656 118.601 28.376C119.177 29.072 119.873 29.612 120.689 29.996C121.505 30.38 122.441 30.572 123.497 30.572C124.529 30.572 125.453 30.38 126.269 29.996C127.109 29.612 127.805 29.072 128.357 28.376C128.933 27.656 129.365 26.804 129.653 25.82C129.965 24.836 130.121 23.732 130.121 22.508C130.121 21.284 129.965 20.18 129.653 19.196C129.365 18.188 128.933 17.336 128.357 16.64C127.805 15.92 127.109 15.368 126.269 14.984C125.453 14.6 124.529 14.408 123.497 14.408C122.441 14.408 121.505 14.612 120.689 15.02C119.873 15.404 119.177 15.956 118.601 16.676C118.049 17.372 117.617 18.224 117.305 19.232C117.017 20.216 116.873 21.308 116.873 22.508ZM135.917 22.508C135.917 24.644 135.593 26.528 134.945 28.16C134.321 29.768 133.457 31.124 132.353 32.228C131.249 33.308 129.929 34.124 128.393 34.676C126.881 35.228 125.249 35.504 123.497 35.504C121.793 35.504 120.185 35.228 118.673 34.676C117.161 34.124 115.841 33.308 114.713 32.228C113.585 31.124 112.697 29.768 112.049 28.16C111.401 26.528 111.077 24.644 111.077 22.508C111.077 20.372 111.413 18.5 112.085 16.892C112.757 15.26 113.657 13.892 114.785 12.788C115.937 11.684 117.257 10.856 118.745 10.304C120.257 9.752 121.841 9.476 123.497 9.476C125.201 9.476 126.809 9.752 128.321 10.304C129.833 10.856 131.153 11.684 132.281 12.788C133.409 13.892 134.297 15.26 134.945 16.892C135.593 18.5 135.917 20.372 135.917 22.508ZM146.215 30.428C146.479 30.452 146.779 30.476 147.115 30.5C147.475 30.5 147.895 30.5 148.375 30.5C151.183 30.5 153.259 29.792 154.603 28.376C155.971 26.96 156.655 25.004 156.655 22.508C156.655 19.892 156.007 17.912 154.711 16.568C153.415 15.224 151.363 14.552 148.555 14.552C148.171 14.552 147.775 14.564 147.367 14.588C146.959 14.588 146.575 14.612 146.215 14.66V30.428ZM162.451 22.508C162.451 24.668 162.115 26.552 161.443 28.16C160.771 29.768 159.811 31.1 158.563 32.156C157.339 33.212 155.839 34.004 154.063 34.532C152.287 35.06 150.295 35.324 148.087 35.324C147.079 35.324 145.903 35.276 144.559 35.18C143.215 35.108 141.895 34.94 140.599 34.676V10.376C141.895 10.136 143.239 9.98 144.631 9.908C146.047 9.812 147.259 9.764 148.267 9.764C150.403 9.764 152.335 10.004 154.063 10.484C155.815 10.964 157.315 11.72 158.563 12.752C159.811 13.784 160.771 15.104 161.443 16.712C162.115 18.32 162.451 20.252 162.451 22.508ZM171.858 22.508C171.858 23.732 172.002 24.836 172.29 25.82C172.602 26.804 173.034 27.656 173.586 28.376C174.162 29.072 174.858 29.612 175.674 29.996C176.49 30.38 177.426 30.572 178.482 30.572C179.514 30.572 180.438 30.38 181.254 29.996C182.094 29.612 182.79 29.072 183.342 28.376C183.918 27.656 184.35 26.804 184.638 25.82C184.95 24.836 185.106 23.732 185.106 22.508C185.106 21.284 184.95 20.18 184.638 19.196C184.35 18.188 183.918 17.336 183.342 16.64C182.79 15.92 182.094 15.368 181.254 14.984C180.438 14.6 179.514 14.408 178.482 14.408C177.426 14.408 176.49 14.612 175.674 15.02C174.858 15.404 174.162 15.956 173.586 16.676C173.034 17.372 172.602 18.224 172.29 19.232C172.002 20.216 171.858 21.308 171.858 22.508ZM190.902 22.508C190.902 24.644 190.578 26.528 189.93 28.16C189.306 29.768 188.442 31.124 187.338 32.228C186.234 33.308 184.914 34.124 183.378 34.676C181.866 35.228 180.234 35.504 178.482 35.504C176.778 35.504 175.17 35.228 173.658 34.676C172.146 34.124 170.826 33.308 169.698 32.228C168.57 31.124 167.682 29.768 167.034 28.16C166.386 26.528 166.062 24.644 166.062 22.508C166.062 20.372 166.398 18.5 167.07 16.892C167.742 15.26 168.642 13.892 169.77 12.788C170.922 11.684 172.242 10.856 173.73 10.304C175.242 9.752 176.826 9.476 178.482 9.476C180.186 9.476 181.794 9.752 183.306 10.304C184.818 10.856 186.138 11.684 187.266 12.788C188.394 13.892 189.282 15.26 189.93 16.892C190.578 18.5 190.902 20.372 190.902 22.508Z" fill="#505ABB"/>
<defs>
<clipPath id="clip0_226_2">
<rect width="43" height="43" fill="white"/>
</clipPath>
</defs>
</svg>
