<svg width="148" height="38" viewBox="0 0 148 38" fill="none" xmlns="http://www.w3.org/2000/svg">
<g clip-path="url(#clip0_201_3)">
<path d="M22.3045 36.4438L15.7084 30.0118L29.8742 15.546L36.7034 22.2392L22.3045 36.4438Z" fill="#8AB4F8"/>
<path d="M22.3324 8.00644L15.7605 1.29602L1.38937 15.5309C-0.463125 17.3834 -0.463125 20.3867 1.38937 22.2413L15.5444 36.4892L22.2374 30.2278L11.4528 18.8862L22.3326 8.00644H22.3324Z" fill="#4285F4"/>
<path d="M36.6084 15.6409L22.3584 1.39087C20.5038 -0.463706 17.4962 -0.463706 15.6416 1.39087C13.7869 3.2456 13.7869 6.25324 15.6416 8.10797L29.8916 22.358C31.7462 24.2125 34.7538 24.2125 36.6084 22.358C38.4631 20.5032 38.4631 17.4956 36.6084 15.641V15.6409Z" fill="#8AB4F8"/>
<path d="M18.8909 38.0006C21.4547 38.0006 23.533 35.9223 23.533 33.3585C23.533 30.7948 21.4547 28.7164 18.8909 28.7164C16.3271 28.7164 14.2488 30.7948 14.2488 33.3585C14.2488 35.9223 16.3271 38.0006 18.8909 38.0006Z" fill="#246FDB"/>
</g>
<path d="M57.456 25.144C57.984 25.144 58.416 25.104 58.752 25.024C59.104 24.928 59.384 24.808 59.592 24.664C59.8 24.504 59.944 24.32 60.024 24.112C60.104 23.904 60.144 23.672 60.144 23.416C60.144 22.872 59.888 22.424 59.376 22.072C58.864 21.704 57.984 21.312 56.736 20.896C56.192 20.704 55.648 20.488 55.104 20.248C54.56 19.992 54.072 19.68 53.64 19.312C53.208 18.928 52.856 18.472 52.584 17.944C52.312 17.4 52.176 16.744 52.176 15.976C52.176 15.208 52.32 14.52 52.608 13.912C52.896 13.288 53.304 12.76 53.832 12.328C54.36 11.896 55 11.568 55.752 11.344C56.504 11.104 57.352 10.984 58.296 10.984C59.416 10.984 60.384 11.104 61.2 11.344C62.016 11.584 62.688 11.848 63.216 12.136L62.136 15.088C61.672 14.848 61.152 14.64 60.576 14.464C60.016 14.272 59.336 14.176 58.536 14.176C57.64 14.176 56.992 14.304 56.592 14.56C56.208 14.8 56.016 15.176 56.016 15.688C56.016 15.992 56.088 16.248 56.232 16.456C56.376 16.664 56.576 16.856 56.832 17.032C57.104 17.192 57.408 17.344 57.744 17.488C58.096 17.616 58.48 17.752 58.896 17.896C59.76 18.216 60.512 18.536 61.152 18.856C61.792 19.16 62.32 19.52 62.736 19.936C63.168 20.352 63.488 20.84 63.696 21.4C63.904 21.96 64.008 22.64 64.008 23.44C64.008 24.992 63.464 26.2 62.376 27.064C61.288 27.912 59.648 28.336 57.456 28.336C56.72 28.336 56.056 28.288 55.464 28.192C54.872 28.112 54.344 28.008 53.88 27.88C53.432 27.752 53.04 27.616 52.704 27.472C52.384 27.328 52.112 27.192 51.888 27.064L52.944 24.088C53.44 24.36 54.048 24.608 54.768 24.832C55.504 25.04 56.4 25.144 57.456 25.144ZM70.2248 28H66.6488V15.376H70.2248V28ZM70.5608 11.728C70.5608 12.384 70.3448 12.904 69.9128 13.288C69.4968 13.656 69.0008 13.84 68.4248 13.84C67.8488 13.84 67.3448 13.656 66.9128 13.288C66.4968 12.904 66.2888 12.384 66.2888 11.728C66.2888 11.072 66.4968 10.56 66.9128 10.192C67.3448 9.808 67.8488 9.616 68.4248 9.616C69.0008 9.616 69.4968 9.808 69.9128 10.192C70.3448 10.56 70.5608 11.072 70.5608 11.728ZM91.9279 11.368V14.56H86.9119V28H83.1679V14.56H78.1519V11.368H91.9279ZM96.9156 19.672C96.9156 20.488 97.0116 21.224 97.2036 21.88C97.4116 22.536 97.6996 23.104 98.0676 23.584C98.4516 24.048 98.9156 24.408 99.4596 24.664C100.004 24.92 100.628 25.048 101.332 25.048C102.02 25.048 102.636 24.92 103.18 24.664C103.74 24.408 104.204 24.048 104.572 23.584C104.956 23.104 105.244 22.536 105.436 21.88C105.644 21.224 105.748 20.488 105.748 19.672C105.748 18.856 105.644 18.12 105.436 17.464C105.244 16.792 104.956 16.224 104.572 15.76C104.204 15.28 103.74 14.912 103.18 14.656C102.636 14.4 102.02 14.272 101.332 14.272C100.628 14.272 100.004 14.408 99.4596 14.68C98.9156 14.936 98.4516 15.304 98.0676 15.784C97.6996 16.248 97.4116 16.816 97.2036 17.488C97.0116 18.144 96.9156 18.872 96.9156 19.672ZM109.612 19.672C109.612 21.096 109.396 22.352 108.964 23.44C108.548 24.512 107.972 25.416 107.236 26.152C106.5 26.872 105.62 27.416 104.596 27.784C103.588 28.152 102.5 28.336 101.332 28.336C100.196 28.336 99.1236 28.152 98.1156 27.784C97.1076 27.416 96.2276 26.872 95.4756 26.152C94.7236 25.416 94.1316 24.512 93.6996 23.44C93.2676 22.352 93.0516 21.096 93.0516 19.672C93.0516 18.248 93.2756 17 93.7236 15.928C94.1716 14.84 94.7716 13.928 95.5236 13.192C96.2916 12.456 97.1716 11.904 98.1636 11.536C99.1716 11.168 100.228 10.984 101.332 10.984C102.468 10.984 103.54 11.168 104.548 11.536C105.556 11.904 106.436 12.456 107.188 13.192C107.94 13.928 108.532 14.84 108.964 15.928C109.396 17 109.612 18.248 109.612 19.672ZM116.477 24.952C116.653 24.968 116.853 24.984 117.077 25C117.317 25 117.597 25 117.917 25C119.789 25 121.173 24.528 122.069 23.584C122.981 22.64 123.437 21.336 123.437 19.672C123.437 17.928 123.005 16.608 122.141 15.712C121.277 14.816 119.909 14.368 118.037 14.368C117.781 14.368 117.517 14.376 117.245 14.392C116.973 14.392 116.717 14.408 116.477 14.44V24.952ZM127.301 19.672C127.301 21.112 127.077 22.368 126.629 23.44C126.181 24.512 125.541 25.4 124.709 26.104C123.893 26.808 122.893 27.336 121.709 27.688C120.525 28.04 119.197 28.216 117.725 28.216C117.053 28.216 116.269 28.184 115.373 28.12C114.477 28.072 113.597 27.96 112.733 27.784V11.584C113.597 11.424 114.493 11.32 115.421 11.272C116.365 11.208 117.173 11.176 117.845 11.176C119.269 11.176 120.557 11.336 121.709 11.656C122.877 11.976 123.877 12.48 124.709 13.168C125.541 13.856 126.181 14.736 126.629 15.808C127.077 16.88 127.301 18.168 127.301 19.672ZM133.572 19.672C133.572 20.488 133.668 21.224 133.86 21.88C134.068 22.536 134.356 23.104 134.724 23.584C135.108 24.048 135.572 24.408 136.116 24.664C136.66 24.92 137.284 25.048 137.988 25.048C138.676 25.048 139.292 24.92 139.836 24.664C140.396 24.408 140.86 24.048 141.228 23.584C141.612 23.104 141.9 22.536 142.092 21.88C142.3 21.224 142.404 20.488 142.404 19.672C142.404 18.856 142.3 18.12 142.092 17.464C141.9 16.792 141.612 16.224 141.228 15.76C140.86 15.28 140.396 14.912 139.836 14.656C139.292 14.4 138.676 14.272 137.988 14.272C137.284 14.272 136.66 14.408 136.116 14.68C135.572 14.936 135.108 15.304 134.724 15.784C134.356 16.248 134.068 16.816 133.86 17.488C133.668 18.144 133.572 18.872 133.572 19.672ZM146.268 19.672C146.268 21.096 146.052 22.352 145.62 23.44C145.204 24.512 144.628 25.416 143.892 26.152C143.156 26.872 142.276 27.416 141.252 27.784C140.244 28.152 139.156 28.336 137.988 28.336C136.852 28.336 135.78 28.152 134.772 27.784C133.764 27.416 132.884 26.872 132.132 26.152C131.38 25.416 130.788 24.512 130.356 23.44C129.924 22.352 129.708 21.096 129.708 19.672C129.708 18.248 129.932 17 130.38 15.928C130.828 14.84 131.428 13.928 132.18 13.192C132.948 12.456 133.828 11.904 134.82 11.536C135.828 11.168 136.884 10.984 137.988 10.984C139.124 10.984 140.196 11.168 141.204 11.536C142.212 11.904 143.092 12.456 143.844 13.192C144.596 13.928 145.188 14.84 145.62 15.928C146.052 17 146.268 18.248 146.268 19.672Z" fill="#EAECFF"/>
<defs>
<clipPath id="clip0_201_3">
<rect width="38" height="38" fill="white"/>
</clipPath>
</defs>
</svg>
